<?xml version="1.0" encoding="UTF-8"?>
<!DOCTYPE svg PUBLIC "-//W3C//DTD SVG 1.1//EN" "http://www.w3.org/Graphics/SVG/1.1/DTD/svg11.dtd">
<svg xmlns="http://www.w3.org/2000/svg" version="1.1" width="355px" height="129px" style="shape-rendering:geometricPrecision; text-rendering:geometricPrecision; image-rendering:optimizeQuality; fill-rule:evenodd; clip-rule:evenodd" xmlns:xlink="http://www.w3.org/1999/xlink">
<g><path style="opacity:1" fill="#fffefe" d="M -0.5,-0.5 C 117.833,-0.5 236.167,-0.5 354.5,-0.5C 354.5,42.5 354.5,85.5 354.5,128.5C 236.167,128.5 117.833,128.5 -0.5,128.5C -0.5,85.5 -0.5,42.5 -0.5,-0.5 Z"/></g>
<g><path style="opacity:1" fill="#ffb3ce" d="M 209.5,20.5 C 211.792,20.2436 213.959,20.5769 216,21.5C 216.667,38.8333 216.667,56.1667 216,73.5C 213.959,74.4231 211.792,74.7564 209.5,74.5C 209.5,56.5 209.5,38.5 209.5,20.5 Z"/></g>
<g><path style="opacity:1" fill="#ffb0cb" d="M 251.5,20.5 C 253.5,20.5 255.5,20.5 257.5,20.5C 257.5,38.5 257.5,56.5 257.5,74.5C 253.838,75.3629 251.672,74.0296 251,70.5C 240.114,78.7122 231.781,76.7122 226,64.5C 224.22,55.6136 225.72,47.447 230.5,40C 237.769,34.9306 244.603,35.4306 251,41.5C 251.5,34.5079 251.666,27.5079 251.5,20.5 Z"/></g>
<g><path style="opacity:1" fill="#ffb0cb" d="M 178.5,36.5 C 185.822,37.0375 193.155,37.3709 200.5,37.5C 200.5,39.1667 200.5,40.8333 200.5,42.5C 198.473,42.3379 196.473,42.5045 194.5,43C 199.103,53.9979 195.436,60.1646 183.5,61.5C 180.953,61.5576 178.62,60.8909 176.5,59.5C 174.209,61.8173 174.209,63.984 176.5,66C 183.344,66.037 190.011,67.037 196.5,69C 201.299,73.6568 201.799,78.8235 198,84.5C 191.581,89.1827 184.414,90.6827 176.5,89C 166.272,84.9606 164.938,78.9606 172.5,71C 168.5,66.3333 168.5,61.6667 172.5,57C 167.344,48.131 169.344,41.2976 178.5,36.5 Z"/></g>
<g><path style="opacity:1" fill="#ffb1cc" d="M 89.5,37.5 C 91.7925,37.2436 93.9592,37.5769 96,38.5C 99.3333,47.8333 102.667,57.1667 106,66.5C 109.333,57.1667 112.667,47.8333 116,38.5C 118.041,37.5769 120.208,37.2436 122.5,37.5C 116.393,54.3198 110.559,71.3198 105,88.5C 102.534,89.7766 100.034,89.7766 97.5,88.5C 99.0683,83.9614 100.735,79.4614 102.5,75C 97.6468,62.6045 93.3135,50.1045 89.5,37.5 Z"/></g>
<g><path style="opacity:1" fill="#ffafca" d="M 129.5,37.5 C 131.5,37.5 133.5,37.5 135.5,37.5C 135.334,46.1731 135.5,54.8397 136,63.5C 138.321,69.6159 142.488,71.1159 148.5,68C 150,66.5 151.5,65 153,63.5C 153.5,54.8397 153.666,46.1731 153.5,37.5C 155.5,37.5 157.5,37.5 159.5,37.5C 159.5,49.8333 159.5,62.1667 159.5,74.5C 157.5,74.5 155.5,74.5 153.5,74.5C 154.187,68.4012 152.854,67.9012 149.5,73C 142.172,77.1963 136.005,76.0297 131,69.5C 129.547,58.9369 129.047,48.2702 129.5,37.5 Z"/></g>
<g><path style="opacity:1" fill="#fffcfd" d="M 180.5,41.5 C 190.579,41.45 193.246,45.95 188.5,55C 179.98,58.1733 175.813,55.34 176,46.5C 177.025,44.313 178.525,42.6464 180.5,41.5 Z"/></g>
<g><path style="opacity:1" fill="#fffdfd" d="M 237.5,42.5 C 243.269,41.6344 247.769,43.6344 251,48.5C 251.667,53.5 251.667,58.5 251,63.5C 247.064,69.3913 241.897,70.8913 235.5,68C 231.702,60.2752 231.536,52.4418 235,44.5C 235.995,43.9341 236.828,43.2674 237.5,42.5 Z"/></g>
<g><path style="opacity:1" fill="#fffcfc" d="M 177.5,71.5 C 182.232,71.3776 186.898,71.8776 191.5,73C 194.791,75.332 195.291,78.1653 193,81.5C 187.738,84.7144 182.238,85.2144 176.5,83C 173.805,78.9777 174.138,75.1444 177.5,71.5 Z"/></g>
</svg>
